<svg width="22" height="22" viewBox="0 0 22 22" fill="none" xmlns="http://www.w3.org/2000/svg">
<path d="M20.5633 18.207C20.5133 18.3102 20.4459 18.4041 20.364 18.4844L20.364 18.4845L20.3639 18.4846L20.3633 18.4851L20.361 18.4875L20.3515 18.4968L20.3149 18.5328L20.1813 18.6648C20.0693 18.7756 19.9173 18.9267 19.7567 19.0877C19.4203 19.4253 19.0927 19.761 18.9823 19.8908C18.9719 19.9029 18.9613 19.9148 18.9504 19.9264C18.2905 20.6306 17.4773 20.9693 16.4988 20.9693L16.4897 20.9693C16.4265 20.9694 16.3243 20.9694 16.2217 20.9626C14.6622 20.8624 13.2549 20.2606 12.2852 19.7978L12.2809 19.7958C9.559 18.4808 7.17082 16.6142 5.19038 14.2549L5.18732 14.2513L5.18733 14.2513C3.56941 12.3052 2.4604 10.4723 1.72184 8.48132C1.26467 7.2594 1.06469 6.21992 1.14934 5.18927L1.14962 5.1858L1.14963 5.1858C1.21553 4.41631 1.52405 3.75234 2.0716 3.20591L3.63327 1.64743C3.64072 1.63999 3.64829 1.63268 3.65597 1.62548C3.99499 1.30787 4.46562 1.03076 5.03577 1.03076C5.72481 1.03076 6.20178 1.43427 6.41079 1.64285C6.41079 1.64285 6.41079 1.64285 6.41079 1.64286L6.41275 1.64481C6.70665 1.91952 6.98278 2.20021 7.26002 2.48596L20.5633 18.207ZM20.5633 18.207L19.6633 17.771M20.5633 18.207L19.6633 17.771M19.6633 17.771C20.5633 18.207 20.5634 18.2067 20.5636 18.2064L20.5638 18.2059L20.5644 18.2047L20.5656 18.2021L20.5687 18.1957L20.5767 18.1785C20.5829 18.1651 20.5907 18.1479 20.5997 18.1271C20.6176 18.0859 20.6408 18.0299 20.6659 17.9624C20.7152 17.8303 20.7773 17.6399 20.8198 17.4202C20.8896 17.059 20.9781 16.2407 20.3639 15.6315C20.3632 15.6307 20.3624 15.63 20.3617 15.6292L17.8464 13.1191C17.6224 12.8798 17.1474 12.4795 16.4667 12.4795C15.7638 12.4795 15.2695 12.9141 15.0688 13.1144L14.1711 14.0103C14.1689 14.0125 14.167 14.0144 14.1653 14.0161C14.002 13.9177 13.8258 13.8298 13.6843 13.7592L13.6661 13.7502C13.477 13.6558 13.3294 13.5813 13.1911 13.4937L13.19 13.4931C11.8249 12.6315 10.5713 11.4975 9.36532 10.0149C9.36036 10.0088 9.35533 10.0027 9.35022 9.99677C8.71383 9.1874 8.31932 8.54078 8.04293 7.88206C8.0406 7.87454 8.0386 7.86779 8.03685 7.86167C8.03781 7.86072 8.03876 7.85977 8.03971 7.85881C8.12173 7.78567 8.16233 7.75107 8.18112 7.73546C8.18958 7.72844 8.1931 7.72568 8.1942 7.72483L8.1943 7.72475L8.20337 7.71772C8.20858 7.71367 8.21942 7.70523 8.23225 7.69472C8.28903 7.64822 8.3349 7.60146 8.3618 7.57404C8.36324 7.57257 8.36463 7.57116 8.36596 7.5698C8.38052 7.55498 8.40125 7.53373 8.42834 7.50597C8.45763 7.47595 8.49435 7.43831 8.53875 7.39294C8.63206 7.3027 8.72956 7.20429 8.81772 7.1153C8.85907 7.07358 8.89836 7.03392 8.93421 6.99815C9.2719 6.66114 9.59191 6.1881 9.59191 5.58192C9.59191 4.97574 9.2719 4.50269 8.93421 4.16568L7.68933 2.92336C7.6158 2.84774 7.54272 2.77366 7.47305 2.70303L7.4702 2.70014C7.39711 2.62606 7.32786 2.55584 7.2602 2.48614L19.6633 17.771ZM14.1975 14.035C14.2131 14.0443 14.2269 14.0529 14.2297 14.0547C14.236 14.0586 14.2309 14.0554 14.224 14.0513C14.2193 14.0485 14.2108 14.0436 14.1994 14.0374L14.1989 14.0381L14.1814 14.0665L14.0378 14.2983L14.0376 14.2986L14.1975 14.035ZM14.1975 14.035C14.1987 14.0353 14.1996 14.0355 14.2002 14.0356C14.202 14.0361 14.2007 14.0359 14.1958 14.034L14.1975 14.035Z" stroke="#93CD55" stroke-width="2" stroke-linecap="round" stroke-linejoin="round"/>
</svg>
